# xmcd
#
# Track frame offsets: 
#        150
#        6167
#        19302
#        32115
#        44507
#        65275
#        76797
#        89057
#        104105
#        118797
#        138720
#        153322
#
# Disc length: 2194 seconds
#
# Revision: 1
# Processed by: cddbd v1.5.2PL0 Copyright (c) Steve Scherf et al.
# Submitted via: ExactAudioCopy v1.0b1
#
DISCID=a408900c
DTITLE=Blue Guitars And Black Eyed Angels - Music From Heaven
DYEAR=1993
DGENRE=Blues
TTITLE0=Black Eyed Angel Rag
TTITLE1=Sweet Lorraine
TTITLE2=Surrender
TTITLE3=Don't Blame Me
TTITLE4=With Tomorrow
TTITLE5=Shirt On My Back
TTITLE6=Music From Heaven
TTITLE7=Grindstone
TTITLE8=Madelynn
TTITLE9=Keep On Sailing
TTITLE10=Blue Eyes
TTITLE11=Black Angel Rag 2
EXTD=YEAR: 1993
EXTT0=
EXTT1=
EXTT2=
EXTT3=
EXTT4=
EXTT5=
EXTT6=
EXTT7=
EXTT8=
EXTT9=
EXTT10=
EXTT11=
PLAYORDER=
